<mxfile host="Electron" modified="2024-04-02T14:41:55.629Z" agent="Mozilla/5.0 (Windows NT 10.0; Win64; x64) AppleWebKit/537.36 (KHTML, like Gecko) draw.io/23.1.5 Chrome/120.0.6099.109 Electron/28.1.0 Safari/537.36" etag="IYJPtkLbPt8sH1UVSkrh" version="23.1.5" type="device">
  <diagram name="Страница — 1" id="o3YoSdVj7JrO2BulKwtw">
    <mxGraphModel dx="1635" dy="1131" grid="1" gridSize="10" guides="1" tooltips="1" connect="1" arrows="1" fold="1" page="0" pageScale="1" pageWidth="827" pageHeight="1169" math="0" shadow="0">
      <root>
        <mxCell id="0" />
        <mxCell id="1" parent="0" />
        <mxCell id="gMsG1KRbTEmaOiDUdcrw-8" style="rounded=0;orthogonalLoop=1;jettySize=auto;html=1;entryX=0;entryY=0.5;entryDx=0;entryDy=0;" edge="1" parent="1" source="gMsG1KRbTEmaOiDUdcrw-1" target="gMsG1KRbTEmaOiDUdcrw-3">
          <mxGeometry relative="1" as="geometry" />
        </mxCell>
        <mxCell id="gMsG1KRbTEmaOiDUdcrw-9" style="rounded=0;orthogonalLoop=1;jettySize=auto;html=1;entryX=0;entryY=0.5;entryDx=0;entryDy=0;" edge="1" parent="1" source="gMsG1KRbTEmaOiDUdcrw-1" target="gMsG1KRbTEmaOiDUdcrw-4">
          <mxGeometry relative="1" as="geometry" />
        </mxCell>
        <mxCell id="gMsG1KRbTEmaOiDUdcrw-10" style="rounded=0;orthogonalLoop=1;jettySize=auto;html=1;entryX=0;entryY=0.5;entryDx=0;entryDy=0;" edge="1" parent="1" source="gMsG1KRbTEmaOiDUdcrw-1" target="gMsG1KRbTEmaOiDUdcrw-5">
          <mxGeometry relative="1" as="geometry" />
        </mxCell>
        <mxCell id="gMsG1KRbTEmaOiDUdcrw-11" style="rounded=0;orthogonalLoop=1;jettySize=auto;html=1;entryX=0;entryY=0.5;entryDx=0;entryDy=0;" edge="1" parent="1" source="gMsG1KRbTEmaOiDUdcrw-1" target="gMsG1KRbTEmaOiDUdcrw-7">
          <mxGeometry relative="1" as="geometry" />
        </mxCell>
        <mxCell id="gMsG1KRbTEmaOiDUdcrw-1" value="Администратор " style="shape=umlActor;verticalLabelPosition=bottom;verticalAlign=top;html=1;outlineConnect=0;fillColor=#dae8fc;strokeColor=#6c8ebf;" vertex="1" parent="1">
          <mxGeometry y="240" width="80" height="120" as="geometry" />
        </mxCell>
        <mxCell id="gMsG1KRbTEmaOiDUdcrw-3" value="Создание нового проекта" style="ellipse;whiteSpace=wrap;html=1;fillColor=#dae8fc;strokeColor=#6c8ebf;" vertex="1" parent="1">
          <mxGeometry x="200" y="80" width="200" height="80" as="geometry" />
        </mxCell>
        <mxCell id="gMsG1KRbTEmaOiDUdcrw-4" value="Назначение участников команды на проект" style="ellipse;whiteSpace=wrap;html=1;fillColor=#dae8fc;strokeColor=#6c8ebf;" vertex="1" parent="1">
          <mxGeometry x="200" y="200" width="200" height="80" as="geometry" />
        </mxCell>
        <mxCell id="gMsG1KRbTEmaOiDUdcrw-5" value="Управление правами доступа к проекту" style="ellipse;whiteSpace=wrap;html=1;fillColor=#dae8fc;strokeColor=#6c8ebf;" vertex="1" parent="1">
          <mxGeometry x="200" y="320" width="200" height="80" as="geometry" />
        </mxCell>
        <mxCell id="gMsG1KRbTEmaOiDUdcrw-7" value="Мониторинг прогресса проекта" style="ellipse;whiteSpace=wrap;html=1;fillColor=#dae8fc;strokeColor=#6c8ebf;" vertex="1" parent="1">
          <mxGeometry x="200" y="440" width="200" height="80" as="geometry" />
        </mxCell>
        <mxCell id="gMsG1KRbTEmaOiDUdcrw-40" style="rounded=0;orthogonalLoop=1;jettySize=auto;html=1;entryX=1;entryY=0.5;entryDx=0;entryDy=0;" edge="1" parent="1" source="gMsG1KRbTEmaOiDUdcrw-15" target="gMsG1KRbTEmaOiDUdcrw-38">
          <mxGeometry relative="1" as="geometry" />
        </mxCell>
        <mxCell id="gMsG1KRbTEmaOiDUdcrw-41" style="rounded=0;orthogonalLoop=1;jettySize=auto;html=1;entryX=1;entryY=0.5;entryDx=0;entryDy=0;" edge="1" parent="1" source="gMsG1KRbTEmaOiDUdcrw-15" target="gMsG1KRbTEmaOiDUdcrw-37">
          <mxGeometry relative="1" as="geometry" />
        </mxCell>
        <mxCell id="gMsG1KRbTEmaOiDUdcrw-42" style="rounded=0;orthogonalLoop=1;jettySize=auto;html=1;entryX=1;entryY=0.5;entryDx=0;entryDy=0;" edge="1" parent="1" source="gMsG1KRbTEmaOiDUdcrw-15" target="gMsG1KRbTEmaOiDUdcrw-36">
          <mxGeometry relative="1" as="geometry" />
        </mxCell>
        <mxCell id="gMsG1KRbTEmaOiDUdcrw-15" value="Участник" style="shape=umlActor;verticalLabelPosition=bottom;verticalAlign=top;html=1;outlineConnect=0;fillColor=#d5e8d4;strokeColor=#82b366;" vertex="1" parent="1">
          <mxGeometry x="720" y="240" width="80" height="120" as="geometry" />
        </mxCell>
        <mxCell id="gMsG1KRbTEmaOiDUdcrw-36" value="Просмотр информации о проекте" style="ellipse;whiteSpace=wrap;html=1;fillColor=#d5e8d4;strokeColor=#82b366;" vertex="1" parent="1">
          <mxGeometry x="400" y="140" width="200" height="80" as="geometry" />
        </mxCell>
        <mxCell id="gMsG1KRbTEmaOiDUdcrw-37" value="Добавление задач и задач в проект" style="ellipse;whiteSpace=wrap;html=1;fillColor=#d5e8d4;strokeColor=#82b366;" vertex="1" parent="1">
          <mxGeometry x="400" y="260" width="200" height="80" as="geometry" />
        </mxCell>
        <mxCell id="gMsG1KRbTEmaOiDUdcrw-38" value="Обновление статуса задачи" style="ellipse;whiteSpace=wrap;html=1;fillColor=#d5e8d4;strokeColor=#82b366;" vertex="1" parent="1">
          <mxGeometry x="400" y="380" width="200" height="80" as="geometry" />
        </mxCell>
        <mxCell id="gMsG1KRbTEmaOiDUdcrw-45" value="Пользователь" style="shape=umlActor;verticalLabelPosition=bottom;verticalAlign=top;html=1;outlineConnect=0;fillColor=#d5e8d4;strokeColor=#82b366;" vertex="1" parent="1">
          <mxGeometry x="910" y="-70" width="80" height="120" as="geometry" />
        </mxCell>
      </root>
    </mxGraphModel>
  </diagram>
</mxfile>
